<?xml version="1.0" standalone="no"?>
<!DOCTYPE svg PUBLIC "-//W3C//DTD SVG 20010904//EN"
 "http://www.w3.org/TR/2001/REC-SVG-20010904/DTD/svg10.dtd">
<svg version="1.0" xmlns="http://www.w3.org/2000/svg"
 width="569.000000pt" height="569.000000pt" viewBox="0 0 569.000000 569.000000"
 preserveAspectRatio="xMidYMid meet">
<metadata>
Created by potrace 1.11, written by Peter Selinger 2001-2013
</metadata>
<g transform="translate(0.000000,569.000000) scale(0.100000,-0.100000)"
fill="#000000" stroke="none">
<path d="M1943 5670 c-304 -69 -500 -328 -528 -698 l-5 -67 25 75 c14 41 28
83 31 92 12 35 50 99 94 159 59 81 158 151 264 186 106 34 278 39 371 9 211
-66 346 -220 410 -465 24 -96 30 -145 29 -261 0 -137 -5 -159 -71 -325 -81
-203 -84 -213 -84 -310 -2 -144 74 -270 291 -485 81 -80 218 -215 306 -300 90
-88 184 -190 216 -236 59 -82 129 -209 142 -254 3 -14 13 -50 22 -80 8 -30 17
-93 20 -140 14 -192 -73 -320 -401 -595 -329 -276 -474 -492 -520 -777 -72
-446 152 -860 582 -1075 176 -88 337 -124 538 -118 129 3 209 17 315 53 236
82 419 238 510 435 37 80 43 104 46 207 6 184 -44 330 -147 431 -80 79 -142
102 -274 103 -92 1 -104 -1 -147 -26 -90 -53 -140 -136 -154 -253 l-5 -50 19
41 c54 112 159 173 250 143 94 -30 150 -113 150 -222 -2 -238 -179 -385 -488
-403 -120 -7 -202 10 -325 71 -88 43 -112 60 -185 130 -63 61 -96 112 -130
200 -30 79 -34 265 -7 365 44 163 149 323 326 498 60 59 163 161 230 227 174
170 248 272 293 404 32 93 32 254 -1 360 -44 142 -127 293 -256 466 -133 177
-232 287 -535 595 -106 107 -203 211 -216 230 -37 56 -54 150 -49 270 4 107 7
128 31 260 19 108 11 358 -15 474 -82 356 -257 565 -543 646 -105 31 -313 35
-425 10z"/>
<path d="M3170 5542 c182 -210 255 -516 226 -947 -4 -55 -10 -127 -15 -160 -5
-33 -9 -106 -10 -162 -2 -97 0 -106 32 -175 48 -105 128 -198 407 -477 272
-272 348 -356 426 -476 97 -150 130 -262 121 -410 -17 -257 -155 -572 -373
-852 -41 -52 -69 -91 -62 -87 103 62 288 226 392 348 254 300 341 625 246 916
-75 229 -192 384 -591 780 -161 160 -272 278 -297 317 -42 66 -58 129 -67 258
-11 172 -30 370 -41 430 -61 339 -156 528 -347 688 -15 12 -42 31 -59 42 -31
18 -30 17 12 -33z"/>
<path d="M1254 4296 c-53 -24 -90 -96 -98 -191 -3 -44 6 -45 22 -2 7 19 27 47
45 63 30 27 37 29 128 30 97 2 291 -24 321 -42 4 -3 18 -7 30 -9 13 -3 85 -25
161 -51 150 -50 182 -51 193 -9 8 33 1 50 -31 71 -41 27 -271 101 -385 124
-137 27 -343 36 -386 16z"/>
<path d="M1222 3757 c-42 -53 -58 -69 -102 -100 -22 -15 -22 -17 -5 -17 36 0
88 19 111 41 37 35 39 4 6 -90 -27 -75 -28 -80 -9 -64 42 36 67 69 78 102 10
30 13 31 27 18 14 -15 19 -116 7 -176 -2 -11 -2 -21 0 -21 7 0 51 91 64 133 8
24 19 37 30 37 33 0 41 -22 41 -119 l1 -96 23 70 c31 93 47 125 62 125 18 0
24 -13 31 -67 3 -27 7 -55 9 -63 1 -8 3 -23 3 -32 2 -37 18 -16 20 25 6 115
27 151 74 130 20 -9 28 -26 42 -85 19 -80 34 -107 36 -65 1 15 2 30 3 35 3 13
19 107 20 116 1 5 9 14 18 20 26 16 41 -7 63 -96 10 -43 21 -78 25 -78 7 0 16
47 27 145 10 94 39 99 91 15 34 -54 62 -81 49 -46 -3 8 -9 41 -12 73 -5 43 -3
66 9 88 9 17 16 40 16 51 l0 22 -59 -24 c-279 -113 -562 -105 -727 21 l-32 24
-40 -52z"/>
<path d="M2552 2844 c-31 -13 -52 -40 -52 -68 0 -26 104 -22 130 4 51 51 -3
96 -78 64z"/>
<path d="M2205 2829 c-16 -50 36 -86 111 -77 40 4 42 31 6 68 -39 38 -106 43
-117 9z"/>
<path d="M2197 2406 c-21 -8 -77 -36 -125 -63 -48 -28 -109 -56 -137 -63 -27
-7 -54 -16 -58 -20 -10 -9 148 -155 205 -190 260 -159 585 -123 818 91 25 23
60 52 78 66 29 23 43 45 25 41 -11 -2 -34 7 -158 64 -220 101 -274 108 -368
44 l-36 -25 -55 30 c-65 35 -136 45 -189 25z"/>
</g>
</svg>
